# xmcd CD database file
#
# Track frame offsets:
#	150
#	14692
#	32325
#	44010
#	57747
#	75109
#	90621
#	107454
#	118521
#	131556
#	145424
#	160809
#	178504
#	195264
#	209186
#	221690
#	237317
#	250623
#	265384
#	279079
#	295674
#
# Disc length: 4128 seconds
#
# Revision: 1
# Processed by: cddbd v1.5.2PL0 Copyright (c) Steve Scherf et al.
# Submitted via: CDex 1.51
#
DISCID=2b101e15
DTITLE=Billy Yates - Favorites
DYEAR=2007
DGENRE=Country
TTITLE0=Better every beer
TTITLE1=Choices w-george jones
TTITLE2=Too country and proud of it
TTITLE3=In the light of day
TTITLE4=A better place
TTITLE5=Daddy has a cardiac and mamas got a cadillac
TTITLE6=Down at the station
TTITLE7=Me, maria
TTITLE8=Daddys radio
TTITLE9=Smokin grass
TTITLE10=Dreaming out loud
TTITLE11=My infinite love
TTITLE12=Anywhere but nashville
TTITLE13=Roxannes bayou
TTITLE14=This song doesnt rock
TTITLE15=All by my lonesome
TTITLE16=The circus is over
TTITLE17=Alcohol abuse
TTITLE18=The perfect woman
TTITLE19=Harmony man
TTITLE20=Flowers
EXTD=YEAR: 2007
EXTT0=
EXTT1=
EXTT2=
EXTT3=
EXTT4=
EXTT5=
EXTT6=
EXTT7=
EXTT8=
EXTT9=
EXTT10=
EXTT11=
EXTT12=
EXTT13=
EXTT14=
EXTT15=
EXTT16=
EXTT17=
EXTT18=
EXTT19=
EXTT20=
PLAYORDER=
